# xmcd
#
# Track frame offsets:
#	150
#	17834
#	30092
#	40369
#	52110
#	64560
#	77708
#	90503
#	103869
#	117375
#	131248
#	145239
#	156445
#	165834
#
# Disc length: 2364 seconds
#
# Revision: 1
# Processed by: cddbd v1.5.2PL0 Copyright (c) Steve Scherf et al.
# Submitted via: audiograbber 1.83.01
#
DISCID=b5093a0e
DTITLE=Hubert Wolf uns seine Böhmerländer Musikanten - Seine größten Erfolge
DYEAR=1900
DGENRE=Blasmusik
TTITLE0=Es war im Böhmerwald
TTITLE1=Die Böhmerländer kommen
TTITLE2=Lustige Musikanten
TTITLE3=Mir san mir
TTITLE4=Das kleine Echo aus dem Böhmerwald
TTITLE5=Böhmische Herzen
TTITLE6=Der Schornsteinfeger aus Eger
TTITLE7=Herz-Schmerz-Polka - Rosamunde
TTITLE8=Annamirl Polka
TTITLE9=Jeder Tag bringt neue Hoffnung
TTITLE10=Böhmerländer Sonntag
TTITLE11=Maruschka Polka
TTITLE12=Powidldatschkerln - Das hat schon der alte Nowotny gesagt
TTITLE13=Sei immer g`scheit und stell dich dumm (Lied des Schwejk)
EXTD=
EXTT0=
EXTT1=
EXTT2=
EXTT3=
EXTT4=
EXTT5=
EXTT6=
EXTT7=
EXTT8=
EXTT9=
EXTT10=
EXTT11=
EXTT12=
EXTT13=
PLAYORDER=
